<?xml version="1.0" encoding="UTF-8"?>
<svg viewBox="0 0 612.164 613.171" xmlns="http://www.w3.org/2000/svg">
 <path d="m82.432 17.924c-41.335 0-64.571 21.371-64.571 65.036v450.12c0 40.843 20.891 62.228 62.192 62.228h452.02c41.303 0 62.226-20.32 62.226-62.228v-450.12c0-42.6-20.923-65.036-63.523-65.036 0 0-448.49-0.142-448.35 0z" stroke="#000" stroke-width="3.408"/>
 <path d="m121.06 119.85h362.48l-157.52 194.57v124.61h87.191c29.25 0 29.5 44.091 0 44.091h-217.5c-29.5 0-29.5-44.091 0-44.091h85.712v-125.56l-160.37-193.61z" fill="#fff"/>
 <path d="m331.21 257.15c15.532 0 28.125-12.592 28.125-28.126s-12.593-28.127-28.125-28.127-28.126 12.595-28.126 28.127 12.592 28.126 28.126 28.126z"/>
 <path d="m331.21 229.03"/>
</svg>
