<?xml version="1.0" encoding="UTF-8"?>
<svg viewBox="0 0 640 480" xmlns="http://www.w3.org/2000/svg">
 <g fill-rule="evenodd">
  <path d="m411.5 152.09c8.517 8.9415 18.189 43.505 22.415 63.325 3.1251 14.657 4.7089 48.729 2.7565 45.915l-22.722-51.544-2.4498-57.696z" fill="#fff"/>
  <path d="m284.51 406.33c-4.0313 9.2507-17.994 22.177-14.334 27.066 4.0586 5.4218 25.017 4.0274 37.49 3.8664 12.52-0.16141 24.993-3.222 37.49-4.8332l8.8211-40.599-65.056-1.45c-1.4702 5.3166-2.1935 10.862-4.4106 15.95z"/>
  <path d="m233.79 379.26c20.582 2.8999 34.137 5.0997 48.516 11.6 9.1434 4.1331 12.934 19.158 22.053 20.3 14.037 1.7578 31.609-7.7332 47.413-11.6l-1.1026-60.898-41.9-0.9667-74.979 41.566z" fill="#fff"/>
  <path d="m37.516 326.1c-1.1026 14.177-0.46545 28.649-3.308 42.532-2.3032 11.249-15.522 23.941-12.129 32.866 3.5899 9.4412 24.659 11.89 36.978 14.714 11.572 2.6533 21.758 2.9126 34.694 1.7189 8.0142-0.73959 16.172 0 24.258 0l-1.1027-53.165-79.39-38.666z"/>
  <g fill="#fff">
   <path d="m119.11 367.66c-19.164 3.1958-39.088-3.1181-56.991-13.582-10.765-6.2914-25.504-21.461-30.496-32.134-10.078-21.549-16.264-22.185-22.51-49.493-5.7888-25.311-10.66-62.54 2.4499-85.817 15.554-27.615 27.658-65.55 47.157-90.308 12.477-15.841 41.008-36.248 54.815-43.109 4.4215-2.1972 6.8524 9.732 6.677 15.749l-1.1027 298.69z"/>
   <path d="m202.59 5.3302c10.946-5.1978 30.034-2.2772 43.329 0.8079 11.698 2.7147 21.842 10.074 33.079 14.5 14.123 5.5626 30.973 7.4852 43.003 15.466 15.168 10.063 27.337 24.762 38.592 38.666 13.003 16.062 24.574 32.208 33.217 51.655l10.888 73.042-2.7566 44.466-253.61-5.3166-1.1026-37.216 1.1026-22.716-15.437-59.932 29.771-76.848c12.286-16.452 24.403-29.205 39.92-36.574z"/>
  </g>
  <path d="m109.19 55.437c-4.18 3.4243 4.4396 8.9676 2.2052 12.566-13.57 21.856-41.414 39.956-49.619 63.798-11.643 33.834-13.51 73.812-9.9238 109.23 1.9274 19.036 20.435 35.395 26.463 54.132 6.1008 18.962 4.3519 40.198 9.9237 58.965 1.4116 4.7544 10.174 6.8681 11.026 11.6 2.4558 13.634-3.1158 29.233-1.1026 43.499 2.3974 16.989-0.83714 45.18 14.334 50.265 34.815 11.67 99.343 7.5606 135.62 0 8.5592-1.7836 1.6956-19.23-1.1026-28.033-3.45-10.853-24.048-23.252-17.642-30.933 18.587-22.286 65.635-52.578 92.622-58.965 9.7682-2.3121 15.27 21.524 17.642 32.866 1.6711 7.9913-2.6782 16.999-5.5132 25.133-5.2511 15.066-24.787 35.43-18.745 44.465 6.4548 9.653 37.261 10.522 56.234 11.6 20.721 1.1776 45.389 1.7864 62.85-4.8332 9.7368-3.6912 14.686-16.61 18.745-26.099 5.8646-13.71 6.0127-21.427 11.578-35.283 3.6237-9.0218 14.364-33.654 12.129-42.532-9.5265-37.843-32.756-67.4-45.484-106.81-10.06-31.15-9.4966-65.083-19.02-95.698-2.605-8.3737-13.232-13.533-19.847-20.299 1.1027 33.188 2.2053 66.376 3.308 99.564l-240.38-18.366c2.2052-9.0219 6.7556-18.037 6.6158-27.066-0.33382-21.552-17.204-39.984-16.54-59.932 0.80576-24.195 9.4555-50.292 20.95-72.498 8.3529-16.137 23.31-36.006 39.567-41.849-31.197 10.308-70.736 30.078-96.904 51.515z"/>
  <path d="m153.62 203.9c-5.0686 23.722 3.3187 53.66 9.1555 74.09 5.9882 20.96 58.31 54.292 91.519 63.798 20.82 5.9599 49.293-4.0414 65.501-15.691 12.262-8.8133 26.389-21.201 39.829-26.724 7.6886-3.1601 14.367-3.9254 19.97-8.7584 10.67-9.2038 21.045-41.866 20.694-63.115-0.38379-23.216-4.3438-51.134-18.611-70.282-15.504-20.807-44.575-41.586-71.092-47.873-31.923-7.5684-76.809-4.0574-102.28 11.776-37.274 23.172-47.962 51.308-54.687 82.779z" fill="#fff"/>
  <path d="m185.27 149.2c14.059-12.889 19.296-22.394 33.079-29.966-2.9404-14.178-2.7438-34.991-8.8211-42.532-5.0266-6.2376-32.248-9.4697-38.592-5.7998-10.698 6.1887-20.16 36.122-17.642 40.599 11.87 21.103 23.535 15.106 29.771 25.133 2.2211 3.5712 1.4702 8.3775 2.2053 12.566z"/>
  <path d="m333.02 107.64c2.7339-13.952 19.412-36.013 30.874-37.699 10.527-1.5487 41.69 21.552 43.003 35.766 0.46985 5.0861-7.3745 21.405-15.437 28.999-4.7492 4.4734-12.869 8.1745-16.264 12.566-2.5375 3.2825-2.4809 6.4442-2.4809 9.6664-9.5562-7.9748-20.215-14.258-31.976-20.3-2.5728-9.6664-8.8057-23.451-7.7184-28.999z"/>
  <path d="m293.61 289.6c1.8886 2.1991 1.7842 7.4516 0.77966 9.2274-0.26984 0.47708-18.351 16.962-27.289 17.43-11.425 0.59799-28.475-10.206-32.747-15.037-1.8634-2.1073-4.2524-3.5919-1.5593-6.4934 2.5651-2.7638 60.08-5.982 60.815-5.1264z"/>
  <path d="m228.51 214.07c2.7116-0.69795 8.4087 5.8923 10.526 10.936 1.6993 4.0488-15.305 33.843-21.441 39.302-5.3739 4.7808-19.632 0.53622-21.831-1.7088-2.9155-2.9764-6.3435-14.498-3.1187-19.138 8.3651-12.039 30.795-28.086 35.865-29.391z"/>
  <path d="m304.14 214.41c-6.6659 1.1143-13.98 12.3-14.814 17.772-0.34128 2.2381 22.236 29.804 31.967 35.201 2.7646 1.5335 27.718-13.753 27.289-17.088-1.7596-13.68-40.597-36.528-44.442-35.885z"/>
 </g>
</svg>
