<?xml version="1.0" encoding="UTF-8"?>
<svg enable-background="new 0 0 182.426 262.747" viewBox="0 0 182.426 262.747" xmlns="http://www.w3.org/2000/svg">
 <path d="m60.984.08c3.216.784 6.628,1.371 9,3 .713,7.713-4.516,9.484-12,9 .127-1.794-1.225-2.109-1-4-.74-3.407 3.685-1.648 4-4-.19-.81-1.003-.997-1-2l1.5-.5-.5-1.5z"/>
 <path d="m43.984,2.08c2.466-2.724 7.115.827 9,2 .717,6.717-1.41,10.59-7,11-4.03-2.852.99-9.038-3-11l1.499-.5-.499-1.5z"/>
 <path d="m79.984,4.08c3.145-.479 3.909,1.424 6,2-.12,2.88.545,6.546-1,8-5.406-.262-12.577,1.243-14-3-.499-4.832 5.876-2.79 8-5l1.5-.5-.5-1.5z"/>
 <path d="m30.984,7.08c4.58-3.206 8.863,2.439 11,5-2.376,3.291-3.484,7.85-8,9-.057-3.611-2.494-4.841-3-8 3.506.879 1.743-3.296 0-3l.5-1.5-.5-1.5z"/>
 <path d="m94.984,10.08c5.798,1.127 7.552,9.584 3,13-5.338.003-8.094-2.573-12-4 .542-3.792 2.796-5.87 8-5v-2l1.5-.5-.5-1.5z"/>
 <path d="m25.984,17.08c3.19-.857 3.093,1.574 5,2 .51,4.178-.559,6.775-2,9-1.787-2.547-4.945-3.722-4-9l1.5-.5-.5-1.5z"/>
 <path d="m103.984,17.08c5.472,3.193 10.777,6.553 10,16-6.978,2.364-15.065-1.163-16-8 3.602-1.812 2.945.177 6,1 1.243-.351-.824-5.764 0-9z"/>
 <path d="m12.984,27.08c.351-3.316 5.764-1.57 9-2 3.623,2.216 3.424,8.34 2,13-4.527-.474-7.132-2.868-7-8h-3l.5-1.833-1.5-1.167z"/>
 <path d="m12.283,29.38 1.701.7c-.909,2.091-2.952,3.048-6,3 .923-1.743-.035-5.368 3-5l1.299,1.3z"/>
 <path d="m116.984,38.08c2.859,2.827 6.168,11.222 2,15-8.295-1.039-10.892-7.777-13-15 4.064-2.46 4.828.971 9,1l1.5.5 .5-1.5z"/>
 <path d="m4.984,43.08c1.031-13.376 18.605-4.871 16,6-8.05,2.049-7.353-4.647-13-5l-1.167-1.5-1.833.5z"/>
 <path d="m16.984,52.08c1.978,2.688 4.405,4.928 4,10-5.21.543-9.036-.298-12-2-3.557,1.776-2.891,7.776-8,8-.787-3.771-1.75-8.471 0-12 5.375-1.291 8.049-5.284 16-4z"/>
 <path d="m110.984,54.08c6.863,1.268 7.135,3.651 14,1-1.885,4.116-2.793,9.208-4,14-5.291-.044-7.605-3.062-11-5 .269-3.395-.775-8.108 1-10z"/>
 <path d="m24.984,76.08c-3.458,1.209-6.626,2.708-12,2-2.248,2.002 1.717,6.241-2,8-4.718-2.124-6.297-7.254-6-11 .907-11.492 19.862-13.405 20,1z"/>
 <path d="m86.984,91.08c7.829,1.163 11.644-1.688 13-7-.416-2.221-5.484-.96-5,1-2.112-2.83 1.688-8.272 7-7 2.031,1.302 2.387,4.278 4,6 1.418-2.248 1.477-5.856 5-6 .252-3.586-3.006-3.664-3-7 6.856-3.519 11.805.658 17,4l-1.5,1.167 .5,1.833h-2c-.699,4.364 2.886,4.446 3,8-1.481-.521-2.521-1.48-4-2-.947,2.111-4.732,6.524-2,9-.853,2.934-2.52-1.301-5,0-.282,2.615.363,4.301 3,4l-.5,1.833 1.5,1.167c-9.777,7.117-26.896,2.734-32-6l1.5-1.167-.5-1.833z"/>
 <path d="m36.984,87.08c-2.861,3.422-8.836,4.622-14,3-.186,4.725.914,7.575-2,13-19.455-10.134 6.551-37.572 16-16z"/>
 <path d="m49.984 99.08c-4.599 2.66-9.042 5.249-15 4 4.437 5.255-2.055 5.846-2 12-22.8-7.018 6.226-34.062 17-16z"/>
 <path d="m64.984,111.08c-.679,5.734-5.714,5.056-11,4-2.925,4.409-7.079,7.588-15,7-13.361-17.02 18.503-22.006 26-11z"/>
 <path d="m99.984,116.08c1.602,3.935-4.319.348-4,3-2.955-1.443 1.189-4.027 4-3z"/>
 <path d="m105.984,123.08c.264,3.264-3.883,2.12-4,5-3.064-2.168.568-6.018 4-5z"/>
 <path d="m32.984,132.081c-.006,2.66-2.783,2.551-4,4-2.979-1.773.577-5.329 4-4z"/>
 <path d="m89.984,151.081c5.155,3.842 4.612,13.387 9,18-2.793,4.207-8.419,5.58-14,7-2.136-6.199-6.894-9.773-8-17l1.785.354 1.215-1.354c2.143,2.158 5.586.512 7-1 0-1.668-.001-3.336 0-5l1.833.5 1.167-1.5z"/>
 <path d="m84.198,143.723-1.214,1.357c-4.53-2.75-6.506.937-10,2 .535-3.869-1.786-4.883-1-9 2.794-1.873 4.148-5.187 8-6 .859,6.172 6.952,6.487 6,12l-1.786-.357z"/>
 <path d="m110.984,134.081c-.276,2.059-3.728.939-4,3-3.557-2.12 2.143-5.992 4-3z"/>
 <path d="m112.98 141.08c0.306 2.305-2.891 1.109-3 3-3.28-1.666 1.827-5.427 3-3z"/>
 <path d="m35.984,144.081c-2.223.775-2.681,3.318-6,3-.24-3.364 3.714-5.17 6-3z"/>
 <path d="m133.98 148.08c2.674 2.318 4.084 7.818 2 12-3.883-2.787-8.308-5.027-10-10 3.276-0.058 3.823-2.846 8-2z"/>
 <path d="m32.984,155.081c2.089-.424 2.647.685 4,1-.086,2.58-4.281,1.051-3,5-2.741-.021-2.375-4.719-1-6z"/>
 <path d="m118.984,175.081c-7.848,2.32-9.379,13.178-5,20-7.615-3.387-11.379-10.623-11-22 2.785-4.549 6.502-8.164 9-13 8.191,1.994 13.731-7.855 21,0-2.826,3.84-6.422,6.912-8,12l-1-.5-1,.5c-.892.441-1.791.877-2,2l-1.5-.5-.5,1.5z"/>
 <path d="m39.984,167.081c-.87,2.479-4.476,5.229-7,3 .757-2.577 3.191-3.476 7-3z"/>
 <path d="m95.984,210.081c-8.178-9.135-16.333-33.008 3-36 .061,5.049 4.041,11.84 7,17 .168,2.502-1.537,3.129-3,4-.17,2.502 1.535,3.129 3,4 .742,3.078-2.746,1.92-2,5l-1.5-.5-.5,1.5c-3.211-.879-2.074,2.592-4,3l-1.5.5-.5,1.5z"/>
 <path d="m69.984,206.081c-1.355-3.312-5.93-3.404-9-5-1.357.309-.831,2.502-1,4-1.998-.086-5.08-7.205-6-2-6.849-7.486-20.139-8.529-19-24 6.273-.607 8.443,2.889 13,4 2.994-.658-.957-2.139 0-4 9.963,6.073 28.924,12.562 24,27l-1-.5-1,.5z"/>
 <path d="m15.984,247.081c-2.369-17.695 3.885-26.358 18-23 7.923,1.885 15.732,16.457 22,18l-1.5.5 .5,1.5c-3.069-.355-10.524-5.067-11,1v1l-1.357,1.213 .357,1.787c-6.698-3.666-8.846-7.23-16-9 4.098,15.566 24.977,14.354 45,14l-.5,1.5 1.5.5c-15.064,7.36-49.478,13.037-53-8h-2l-.5-1.5-1.5.5z"/>
 <path d="m47.484,248.581-.5-1.5c2.279-3.139 6.211-1.6 8,1l-1.5.5 .5,1.5c-.136,1.646-6.865,1.646-7,0l.5-1.5z"/>
 <path d="m41.984,125.08c12.657.991 15.808-7.525 26-9 .083-1.583-.481-3.815 1-4l.5,1.5 1.5.5c1.726,3.94 4.793,6.54 7,10-.78,4.554-5.401,5.266-7,9-2.402-.933-2.648-4.02-7-3-4.168,1.456.612,5.354-1,6-11.131.797-13.194-7.475-22-9l1.5-.5-.5-1.5z"/>
 <path d="m72.984,160.081c2.331,5.336 5.123,10.209 8,15-3.069.42-12.154,1.258-14,6-3.106-5.254-3.861-11.994-4-18l1.5.5 1.5-.5c2.48,2.571 3.562-.679 5-2l1.5.5 .5-1.5z"/>
 <path d="m62.484,153.581-1.5.5c-.498-5.838-6.394-6.274-5-14 2.39-.609 7.255,1.254 8-1 2.947,2.717 5.187,6.146 5,12-2.918-.252-3.451,1.883-5,3l-1.5-.5z"/>
 <path d="m159.984,166.081c-5.211-.791-7.252-4.75-13-5 4.322,8.008 14.279,10.385 17,20-4.078,2.254-10.92,1.746-16,3l-.5-1.5-1.5.5c-.164-1.164.22-1.779 1-2-2.965-8.359-12.924-18.164-6-30 9.029,2.303 15.567,7.096 20,14l-1.5-.5 .5,1.5z"/>
 <path d="m90.984,214.081c-1.905-1.875-2.513-.111-5,0l-1-.5-1,.5c-1.365-4.304-5.237-6.098-7-10 .293-2.039 2.706-1.961 3-4-5.769-3.565-10.263-8.404-10-18 2.928-3.515 7.915-3.285 12-1-.164,1.162.22,1.777 1,2-1.423,14.422 6.026,19.973 9,30h-1v1z"/>
 <path d="m131.984,216.081c5.002-5.211 5.492-19.35 13-26 3.686-3.271 10.966-3.732 17-5 2.584-.545 6.718-2.588 9-2 7.414,1.904 7.673,11.127 11,19l-1.5-.5-.5,1.5c-.812-.19-.998-1.004-2-1-5.945,7.398-4.897,16.305-12,22-2.519,2.016-8.74,3.739-14,6-7.155,3.071-11.809,5.939-21,7l.498-1.5-1.498-.5c9.137-7.529 23.391-9.941 26-24 7.798.328 7.589-11.09 6-17-8.657,2.01-9.215,12.117-10,22-2.041.293-1.961,2.705-4,3l-.701-1.701-1.299-1.299c-1.332-5.139-9.989-2.787-12,0l-1-.5-1,.5z"/>
 <path d="m142.484,219.913 1.5,1.168c-2.073,2.26-5.545,3.121-9,4 .896-4.104 3.058-6.941 5-10 1.889.109.692,3.305 3,3l-.5,1.832z"/>
 <path d="m11.984,208.081c2.298-6.035 4.665-12.004 9-16 7.718-1.054 8.221,5.11 15,5 .974,8.146-5.406,12.555-2,20l-.5,1 .5,1c-6.963-1.297-8.885,2.446-15,2 .226-7.774 5.889-10.111 6-18-5.52.146-7.345,3.986-11,6l-.5-1.5-1.5.5z"/>
 <path d="m57.984,1.08c.882-.079 2.235.085 3.5.5" fill="none" stroke="#000" stroke-linecap="round" stroke-width="2.1213"/>
 <path d="m44.483,3.58c-1.412-.451-2.581-.432-3.499-.5" fill="none" stroke="#000" stroke-linecap="round" stroke-width="2.1213"/>
 <path d="m80.484 5.58c-1.32-1.038-2.849-1.741-4-3" fill="none" stroke="#000" stroke-linecap="round" stroke-width="1.964"/>
 <path d="m28.484,9.58c.979-.613 1.777-.936 3-1" fill="none" stroke="#000" stroke-linecap="round" stroke-width="2.5495"/>
 <path d="m95.484,11.58c-.549-.667-.781-1.333-1-2" fill="none" stroke="#000" stroke-linecap="round" stroke-width="1.633"/>
 <path d="m18.483,18.58c1.858-.629 3.624-1.975 5.783-1.449 .424.284 1.293.911 2.218,1.449" fill="none" stroke="#000" stroke-linecap="round" stroke-width="2.586"/>
 <path d="m14.484,28.247c-.694.253-1.431.644-2.201,1.133" fill="none" stroke="#000" stroke-linecap="round" stroke-width="3.3912"/>
 <path d="m115.484,36.58c.369.595.515,1.796 1,3" fill="none" stroke="#000" stroke-linecap="round" stroke-width="2"/>
 <path d="m5.484,45.58c.338-1 .932-2 1.333-3" fill="none" stroke="#000" stroke-linecap="round" stroke-width="3"/>
 <path d="m123.484,76.247c1.824.391 3.084.721 4,1.333" fill="none" stroke="#000" stroke-linecap="round" stroke-width="2.6457"/>
 <path d="m120.984,98.08c-1.125.042-2.887.445-4.5.833" fill="none" stroke="#000" stroke-linecap="round" stroke-width="2.6457"/>
 <path d="m87.484 92.913c-6.166-3.51-7.33-11.379-7.5-17.833" fill="none" stroke="#000" stroke-linecap="round" stroke-width="3.0794"/>
 <path d="m31.484 74.247c4.954 1.28 9.477 3.981 14.5 4.833" fill="none" stroke="#000" stroke-linecap="round" stroke-width="2.958"/>
 <path d="m106.484,116.08c3.714.229 7.261-.868 11-.5" fill="none" stroke="#000" stroke-linecap="round" stroke-width="1.6811"/>
 <path d="m86.15 129.25c1.704-1.055 2.419-2.99 3.334-4.667" fill="none" stroke="#000" stroke-linecap="round" stroke-width="2.5739"/>
 <path d="m111.98 123.08c4.402-0.758 8.902-1.783 13.5-1.5" fill="none" stroke="#000" stroke-linecap="round" stroke-width="1.4402"/>
 <path d="m93.148,137.245c.843-.924 2.088-2.383 3.336-3.664" fill="none" stroke="#000" stroke-linecap="round" stroke-width="2.8284"/>
 <path d="m78.769,159.436c-.779-1.777-1.288-3.736-.767-5.659 .77-.87 2.231-1.063 3.438-1.094l.899.183" fill="none" stroke="#000" stroke-linecap="round" stroke-width="2.7042"/>
 <path d="m88.817 152.58c-0.114-3.598-3.473-5.69-4.619-8.857" fill="none" stroke="#000" stroke-linecap="round" stroke-width="2.9297"/>
 <path d="m117.48 132.58h7" fill="none" stroke="#000" stroke-linecap="round" stroke-width="1.2383"/>
 <path d="m39.483,135.581c3.178.463 5.812,2.769 9.001,3" fill="none" stroke="#000" stroke-linecap="round" stroke-width="2.8504"/>
 <path d="m97.484 147.58c1.608-2.054 3.381-3.957 5-6" fill="none" stroke="#000" stroke-linecap="round" stroke-width="2.6799"/>
 <path d="m119.48 140.58h13" fill="none" stroke="#000" stroke-linecap="round" stroke-width="1.2323"/>
 <path d="m41.984,147.081c3.858.904 7.432,3.389 11.5,4.5" fill="none" stroke="#000" stroke-linecap="round" stroke-width="2.5623"/>
 <path d="m100.48 159.58c1.722-3.512 3.777-6.82 6-10" fill="none" stroke="#000" stroke-linecap="round" stroke-width="2.9019"/>
 <path d="m42.484 157.58c4.276 1.574 8.518 3.838 13 5" fill="none" stroke="#000" stroke-linecap="round" stroke-width="2.7755"/>
 <path d="m123.484,173.581c.349-.473.381-1.229.5-2" fill="none" stroke="#000" stroke-linecap="round" stroke-width="1.9365"/>
 <path d="m119.984,176.081c.027-.65-.229-1.619-.5-2.5" fill="none" stroke="#000" stroke-linecap="round" stroke-width="2.1213"/>
 <path d="m45.484 170.08c3.747 1.42 8.101 2.033 12 3.5" fill="none" stroke="#000" stroke-linecap="round" stroke-width="2.6865"/>
 <path d="m103.484,205.581c-.322-.473-.611-1.229-1-2" fill="none" stroke="#000" stroke-linecap="round" stroke-width="1.9148"/>
 <path d="m98.984 213.08c-0.621-1.518-1.903-2.877-2.5-4.5" fill="none" stroke="#000" stroke-linecap="round" stroke-width="2.4495"/>
 <path d="m69.984,208.081c.457-.955.809-1.773 1-2.5" fill="none" stroke="#000" stroke-linecap="round" stroke-width="1.6124"/>
 <path d="m33.484 190.58c-1.119-1.572-2.577-3.066-3-5" fill="none" stroke="#000" stroke-linecap="round" stroke-width="2.9368"/>
 <path d="m54.484,242.581c2.306.533 3.334,3.529 6,3" fill="none" stroke="#000" stroke-linecap="round" stroke-width="1.6432"/>
 <path d="m42.626 247.29c1.511 1.068 3.205 1.224 4.857 1.287" fill="none" stroke="#000" stroke-linecap="round" stroke-width="3.0472"/>
 <path d="m53.484,248.581c.85.319 1.381.608 2,1" fill="none" stroke="#000" stroke-linecap="round" stroke-width="1.9148"/>
 <path d="m71.484,255.581c5.041-1.07 10.352-.236 15.5-.5" fill="none" stroke="#000" stroke-linecap="round" stroke-width="2.1213"/>
 <path d="m16.984,249.081c-.03-.65.228-1.619.5-2.5" fill="none" stroke="#000" stroke-linecap="round" stroke-width="2.1213"/>
 <path d="m2.484,105.58c.548-5.744 5.818-10.296 4.5-16.5" fill="none" stroke="#000" stroke-linecap="round" stroke-width="1.5899"/>
 <path d="m69.484,113.58c.543-1.667.447-3.333.5-5" fill="none" stroke="#000" stroke-linecap="round" stroke-width="2.2136"/>
 <path d="m36.484,125.58c2.005.242 4.053.389 6,1" fill="none" stroke="#000" stroke-linecap="round" stroke-width="1.7838"/>
 <path d="m16.484 147.58c1.635-2.387 3.802-4.19 5.5-6.5" fill="none" stroke="#000" stroke-linecap="round" stroke-width="1.3266"/>
 <path d="m64.484 163.58c-1.501-3.115-2.213-6.537-2-10" fill="none" stroke="#000" stroke-linecap="round" stroke-width="2.5495"/>
 <path d="m67.15,158.581c1.767-3.523 5.389.393 5.334,3" fill="none" stroke="#000" stroke-linecap="round" stroke-width="2.3145"/>
 <path d="m19.484 160.58c2.599-2.808 4.66-5.896 7.5-8.5" fill="none" stroke="#000" stroke-linecap="round" stroke-width="1.3697"/>
 <path d="m143.484,184.581c1.549.084 3.492-.267 4-2" fill="none" stroke="#000" stroke-linecap="round" stroke-width="1.6583"/>
 <path d="m171.48 174.58c-3.784-3.762-8.006-6.578-12-10" fill="none" stroke="#000" stroke-linecap="round" stroke-width="1.2799"/>
 <path d="m20.484 172.58c2.114-2.531 5.555-4.049 7-7" fill="none" stroke="#000" stroke-linecap="round" stroke-width="1.1905"/>
 <path d="m22.484 181.58c2.556-2.435 5.186-5.096 8-7" fill="none" stroke="#000" stroke-linecap="round" stroke-width="1.1758"/>
 <path d="m85.484,215.581c-.18-.852-.391-1.383-.5-2" fill="none" stroke="#000" stroke-linecap="round" stroke-width="1.5"/>
 <path d="m91.484,215.581c.028-1.029-.229-1.773-.5-2.5" fill="none" stroke="#000" stroke-linecap="round" stroke-width="1.2649"/>
 <path d="m181.48 206.58c-0.633-1.615-0.248-3.412-1-5" fill="none" stroke="#000" stroke-linecap="round" stroke-width="1.8856"/>
 <path d="m122.48 239.58c3.006-1.348 5.834-2.899 8.998-4" fill="none" stroke="#000" stroke-linecap="round" stroke-width="1.732"/>
 <path d="m142.48 219.91c1.863-0.236 3.373-1.414 4.799-2.533" fill="none" stroke="#000" stroke-linecap="round" stroke-width="3.2293"/>
 <path d="m132.98 215.58c-0.202 1.543-1.883 2.301-1.5 4" fill="none" stroke="#000" stroke-linecap="round" stroke-width="1.3416"/>
 <path d="m33.484,218.081c.875.58 1.857,1.256 3,1.5" fill="none" stroke="#000" stroke-linecap="round" stroke-width="1.5811"/>
 <path d="m4.484 223.58c1.174-6.021 6.015-10.664 9-16" fill="none" stroke="#000" stroke-linecap="round" stroke-width="1.9593"/>
</svg>
