<?xml version='1.0' encoding='utf-8'?>
<svg xmlns="http://www.w3.org/2000/svg" version="1.1" baseProfile="basic" x="0px" y="0px" width="960px" height="560px" viewBox="0 0 960 560"> <g id="Capa_2"> <path id="XMLID_218_" fill="none" stroke="#000000" stroke-width="4.252" stroke-linecap="round" stroke-linejoin="round" stroke-miterlimit="10" d=" M335,545c1.5-6,6.7-7.7,11.6-8.8c16.6-3.6,33.2-7,49.9-10.1c8.7-1.6,17.5-2.1,26.2-3.6c2.9-0.5,5.9-1.9,8.3-3.6 c5.8-4.2,11.3-8.8,16.9-13.3c3.2-2.6,6.1-3,9.1,0.4c2,2.2,4.8,3.7,6.7,6c5.3,6.2,11.8,8.2,19.9,7.7c4.3-0.3,7.3-1.2,9.4-4.9 c2.6-4.7,6-5.5,10.8-3c7.2,3.7,14.4,7.7,22,10c6.9,2.1,14.4,2.2,21.7,3.3c30.1,4.4,60.2,9.2,89.4,18.1c1.7,0.5,3.4,1.3,5.1,2 C539.7,545,437.3,545,335,545z"/> <path id="XMLID_204_" fill="none" stroke="#000000" stroke-width="4.252" stroke-linecap="round" stroke-linejoin="round" stroke-miterlimit="10" d=" M527.7,518.4c-1.7-0.4-2.6-0.6-3.6-1c-6.3-2.5-12.6-5.1-18.9-7.6c-3.8-1.5-4.8-3.8-2.3-7.3c3.5-4.9,6.9-9.7,10.3-14.7 c2.1-3.1,4.8-3.8,8.2-2.3c5.4,2.5,10.9,5,16.3,7.4c3.4,1.6,4.2,4,2.4,7.3c-2.9,5.1-5.6,10.2-8.7,15.1 C530.5,516.8,528.8,517.5,527.7,518.4z"/> <path id="XMLID_199_" fill="none" stroke="#000000" stroke-width="4.252" stroke-linecap="round" stroke-linejoin="round" stroke-miterlimit="10" d=" M552.1,476.6c-2.8,5-5.1,9.6-8,13.8c-0.6,0.9-3.8,0.6-5.4,0c-5.5-2.2-10.9-4.9-16.4-7.3c-3.3-1.5-4.2-3.6-2.1-6.7 c0.1-0.1,0.2-0.3,0.3-0.4c9.1-14.3,6.4-12.9,20.9-6.8c2.3,1,4.7,1.8,6.8,3.1C549.5,473.2,550.5,474.9,552.1,476.6z"/> <path id="XMLID_198_" fill="none" stroke="#000000" stroke-width="4.252" stroke-linecap="round" stroke-linejoin="round" stroke-miterlimit="10" d=" M541.5,445.9c6.3,2.3,11.9,4,17.1,6.4c1.2,0.5,2,3.7,1.6,5.3c-1.1,3.6-3,7-4.7,10.4c-1.4,2.8-3.5,3.6-6.6,2.2 c-4.8-2.2-9.7-4.2-14.5-6.4c-3.4-1.5-4.4-3.8-2.3-7.1c1.6-2.5,3-5.2,4.9-7.5C538.2,447.7,540.2,446.8,541.5,445.9z"/> <path id="XMLID_195_" fill="none" stroke="#000000" stroke-width="4.252" stroke-linecap="round" stroke-linejoin="round" stroke-miterlimit="10" d=" M560.5,450.5c-5.9-2.1-11.5-3.8-16.7-6.2c-1-0.5-1.6-3.9-1-5.4c1.7-3.9,4.1-7.6,6.4-11.3c1.8-2.9,4.3-3.5,7.2-1.4 c1.9,1.4,3.7,2.8,5.6,4.1c7.7,5.4,8.4,10.2,2.4,17.7C563.5,449.2,561.8,449.7,560.5,450.5z"/> <path id="XMLID_194_" fill="none" stroke="#000000" stroke-width="4.252" stroke-linecap="round" stroke-linejoin="round" stroke-miterlimit="10" d=" M562,407.5c5.4,0.3,9.4,0.5,13.3,0.6c3.1,0.1,4.2,1.6,3.1,4.6c-1.9,5.1-3.6,10.3-5.6,15.4c-1.4,3.5-4,4.3-7.1,2.2 c-3.6-2.4-7.1-4.9-10.5-7.6c-0.9-0.7-2-2.5-1.6-3.3c1.6-3.8,3.5-7.4,5.7-10.9C559.9,407.6,561.9,407.5,562,407.5z"/> <path id="XMLID_187_" fill="none" stroke="#000000" stroke-width="4.252" stroke-linecap="round" stroke-linejoin="round" stroke-miterlimit="10" d=" M570.7,406.3c-0.3,0-0.7,0-1-0.1c-2.8-0.9-5.6-1.7-8.5-2.6c1.1-3.2,2-6.6,3.5-9.6c0.5-1,2.5-1.9,3.7-1.8c4.3,0.4,8.5,1.2,12.7,2.1 c0.8,0.2,1.8,1.5,1.9,2.4c0.7,5.9-3.5,10.3-9.4,9.9C572.7,406.5,571.7,406.4,570.7,406.3z"/> <path id="XMLID_189_" fill="none" stroke="#000000" stroke-width="4.252" stroke-linecap="round" stroke-linejoin="round" stroke-miterlimit="10" d=" M579.9,392.1c-7.4,0.1-12.2-2.2-12.3-5.7c-0.1-3.8,4.8-12.8,7-12.8c3.9,0,13.2,4.9,13.3,7C588.1,386.3,584.1,392.1,579.9,392.1z"/> <path id="XMLID_183_" fill="none" stroke="#000000" stroke-width="4.252" stroke-linecap="round" stroke-linejoin="round" stroke-miterlimit="10" d=" M575.4,366.6c0-7.2,2.3-8.8,12.7-8.8c2.6,0,4.1,0.7,4.1,3.6c0,7.3-3.2,13.3-7,13.3C579.5,374.8,575.5,371.4,575.4,366.6z"/> <path id="XMLID_188_" fill="none" stroke="#000000" stroke-width="4.252" stroke-linecap="round" stroke-linejoin="round" stroke-miterlimit="10" d=" M582.7,356.6c-3.2,0.1-4.7-1.7-4-4.7c1.3-5.5,2.9-10.8,4.5-16.2c0.2-0.7,1.8-1.6,2.5-1.4c5.4,1.1,10,8.2,9,13.7 C593.5,354.8,591.1,356.5,582.7,356.6z"/> <path id="XMLID_180_" fill="none" stroke="#000000" stroke-width="4.252" stroke-linecap="round" stroke-linejoin="round" stroke-miterlimit="10" d=" M597.9,327.3c-0.4,2.8-0.6,5.6-1.1,8.3c-0.4,2.2-1.5,3.3-3.8,1.9c-4.8-3.1-8.8-6.9-7-13.2c0.6-2.1,2.6-5.1,4.2-5.3 c4.6-0.6,8.1,2.8,7.8,6.3c-0.1,0.7-0.1,1.3-0.2,2C597.8,327.2,597.9,327.2,597.9,327.3z"/> <path id="XMLID_181_" fill="none" stroke="#000000" stroke-width="4.252" stroke-linecap="round" stroke-linejoin="round" stroke-miterlimit="10" d=" M587.7,311.6c0.2-1.8,0.4-3.6,0.7-5.4c0.9-4.8,6.4-8.4,10.9-7c0.9,0.3,2,1.9,2,2.9c-0.2,3.6-0.4,7.3-1.4,10.8 c-1.2,4-5.1,4.8-8.5,4.1c-1.8-0.4-3.1-3-4.6-4.5C587.1,312.2,587.4,311.9,587.7,311.6z"/> <path id="XMLID_179_" fill="none" stroke="#000000" stroke-width="4.252" stroke-linecap="round" stroke-linejoin="round" stroke-miterlimit="10" d=" M589.8,292.2c0.1-1,0.3-2.7,0.6-4.3c0.8-4.8,4.7-7.6,9.3-6.6c0.9,0.2,1.9,0.8,2.3,1.6c2.4,3.9-1.5,13.9-5.9,15.2 C591.9,299.3,589.7,297.5,589.8,292.2z"/> <path id="XMLID_178_" fill="none" stroke="#000000" stroke-width="4.252" stroke-linecap="round" stroke-linejoin="round" stroke-miterlimit="10" d=" M605.1,270.5c-1.3,7.6-3.2,9.9-9,9.1c-4.5-0.6-3.9-4.8-4.1-7.9c-0.2-3.4,5.2-6.8,9.8-5.9C603.2,266.1,604,268.9,605.1,270.5z"/> <path id="XMLID_177_" fill="none" stroke="#000000" stroke-width="4.252" stroke-linecap="round" stroke-linejoin="round" stroke-miterlimit="10" d=" M603.9,252.5c0.5,8-0.8,9.9-6.1,11.5c-2.9,0.8-4.9-0.2-5.2-2.7c-0.2-2,0.7-5,2.2-5.9C597.2,253.8,600.5,253.5,603.9,252.5z"/> <path id="XMLID_210_" fill="none" stroke="#000000" stroke-width="4.252" stroke-linecap="round" stroke-linejoin="round" stroke-miterlimit="10" d=" M601.8,242.6c20.5-7.4,39.1-7.4,57,5.1c16.8,11.7,32.7,24.3,44.4,41.2c11,15.9,13,34.2,11.7,53c-0.1,1.1-0.5,2.3-0.9,3.4 c-2.5,6.8-5.3,7.8-10,2.5c-9.6-11-18.9-22.3-27.5-34.1c-5.3-7.3-3.2-12.3,6.8-20.9c-7.8,0.7-14.6,1.3-21.9,1.9 c0.2-4.9,0.4-9.5,0.7-14.4c-1,0-1.8-0.1-2.5,0c-9.2,1.9-9.2,1.9-14.2-5.7c-7.9-12.1-17.6-22-31.8-26.8 C609.7,246.4,606.2,244.6,601.8,242.6z"/> <path id="XMLID_214_" fill="none" stroke="#000000" stroke-width="4.252" stroke-linecap="round" stroke-linejoin="round" stroke-miterlimit="10" d=" M599.7,238.7c9.7-24.7,26.2-43.5,49.3-56.1c21.4-11.7,44.5-16.4,68.9-14.6c13.8,1.1,26,6.6,36.9,15.1c1.3,1,2.4,2.2,3.3,3.1 c-12.3,4.2-24.2,8.3-36.5,12.5c-1.3-4.2-1.3-11-10-12.6c0,5.2,0.3,10-0.1,14.7c-0.1,1.7-1.5,3.9-3,4.6c-4.3,2.2-8.8,3.8-13.3,5.7 c-3,1.3-4.7,0.6-6.3-2.5c-2.5-5.1-5.8-9.7-12.8-10.2c-1.3,4.7-2.9,9-3.8,13.6c-0.7,3.5-2.5,5.2-5.7,5.9c-1.1,0.2-2.2,0.7-3.3,1.1 c-8.4,2.7-8.3,2.7-13.1-4.6c-1.3-2-3.1-3.7-5.6-6.7c-1.5,3.6-3,6-3.4,8.5c-0.9,5.3-3.6,7.8-8.9,8.9 C620.6,227.7,609.2,230.7,599.7,238.7z"/> <path id="XMLID_206_" fill="none" stroke="#000000" stroke-width="4.252" stroke-linecap="round" stroke-linejoin="round" stroke-miterlimit="10" d=" M594.7,230.6c0.8-15.9,1.7-31.1,2.4-46.3c0.3-6.9,5.5-6.3,11.4-6.2c-11.3-13.2-0.9-22.5,4.4-33.1c1.1,0.4,2,0.7,2.9,1 c0.9,0.4,1.8,0.8,2.8,1.3c0.1-0.6,0.5-1.2,0.3-1.5c-4-7-1.3-12.3,4.2-17.2c2.7-2.4,4.8-5.5,7.3-8.5c2.3,0.9,4.5,1.7,7.1,2.7 c0.2-0.9,0.5-1.5,0.5-2.1c-1-10.2-0.9-10.4,8.5-14.5c6.8-3,13.6-5.8,20.1-8.6c-1.5,9.6-3,18.7-4.5,27.9c-0.2,1.3-0.6,2.6-1,3.9 c-2.1,7-2.1,7-9.3,6.5c-1.6-0.1-3.2,0-4.9,0c0.2,0.6,0.1,1,0.3,1.1c8.4,6.2,8.5,6.3,3,14.9c-2.8,4.3-5.8,8.5-8.8,12.7 c-1.4,1.9-2.5,2.7-5.6,1.7c-3.7-1.1-8.2,0.3-12.3,1.1c10.3,7.7,10.3,7.7,1.7,16.9c-12.3,13.2-23.4,27.3-28.7,45 C596.4,229.7,595.9,229.8,594.7,230.6z"/> <path id="XMLID_213_" fill="none" stroke="#000000" stroke-width="4.252" stroke-linecap="round" stroke-linejoin="round" stroke-miterlimit="10" d=" M555.9,192.5c-2.5,0.9-5.4,3-6.8,2.2c-3.1-1.6-8.7-0.7-8.6-6.5c0-2.8,0.3-5.6,0.5-8.5c-0.4,0.1-0.9,0.1-0.9,0.2 c-2.2,9.9-9.2,12-18.1,11c-5.2-0.5-10.4-1-16.1-1.6c1.2-5.2,2.2-9.2,3.1-13.2c-0.2-0.1-0.4-0.2-0.6-0.3c-2.3,3.6-4.7,7.2-7,10.9 c-2.3,3.7-5.4,5.7-9.9,5.4c-11.6-0.7-23.3-0.8-34.8-2.2c-7.3-0.9-7.8-3.5-3.2-9c22.6-26.9,52.9-34,88-20.3 c22.2,8.6,39.2,22.7,44.6,47.2c1.6,7.3,1.6,15,2.4,22.5c-0.5,0.2-1,0.3-1.6,0.5c-2.5-2.8-4.8-5.7-7.5-8.3 c-5.4-5.2-10.8-10.4-16.6-15.1C557.7,203.1,554,198.7,555.9,192.5z"/> <path id="XMLID_211_" fill="none" stroke="#000000" stroke-width="4.252" stroke-linecap="round" stroke-linejoin="round" stroke-miterlimit="10" d=" M509.3,260.5c-2.9-1.2-5.3-2.2-9.2-3.9c4.8,11.9-4,17.3-8.7,24.5c-5,7.7-10.5,14.7-23.1,12.7c7.8,11.4,3.1,18.9-3.7,26.4 c-6.2-8.8-6.3-18.3-4.9-27.6c4.9-33.8,25.2-57.3,53.1-74.5c17.6-10.9,36.4-7.6,53.2,6.3c5.9,4.9,12.5,9,17.5,12.5 c-11.9,1.7-25.4,2.2-38.2,5.7C532.3,246,519.9,251.8,509.3,260.5z"/> <path id="XMLID_207_" fill="none" stroke="#000000" stroke-width="4.252" stroke-linecap="round" stroke-linejoin="round" stroke-miterlimit="10" d=" M561,372.6c-24.3-10.2-37.4-31.8-35.1-60.2c0.8-10.1,3.3-20.4,7.1-29.8c7.4-18.6,21.8-30.1,41.2-35.3c2.6-0.7,5.1-1.5,7.7-2.1 c5.3-1.2,7.2,0.5,5.7,5.6c-1.4,4.8-3.3,9.4-5.4,13.9c-2,4.2-4.8,8-6.8,12.2c-3.2,6.7-8.6,9.3-15.7,9c-1.8-0.1-3.6,0-5.7,0.9 c2.2,0.7,4.4,1.7,6.7,2c3.1,0.5,4.3,1.9,2.8,4.7c-3,5.9-5.6,12.2-9.7,17.3c-1.8,2.3-6.7,2.1-10.1,3c8.1,1.6,8,7.7,5.9,14.9 c-1.2,0.3-2.8,0.7-6.1,1.5c10.5,3,9.5,11.1,11.2,17.9C556.7,356.3,558.8,364.3,561,372.6z"/> <path id="XMLID_205_" fill="none" stroke="#000000" stroke-width="4.252" stroke-linecap="round" stroke-linejoin="round" stroke-miterlimit="10" d=" M406.5,484.3c8.8,0.5,17.6,1,26.4,1.5c4.7,0.3,15.3,7.7,16.6,12c0.3,1-0.4,3-1.3,3.7c-6.6,5.5-13.5,10.8-20.2,16.2 c-2.3,1.9-4.3,1.4-5.9-0.8c-6.8-9.5-13.5-18.9-20.2-28.5c-0.6-0.8-1-3-0.8-3c1.7-0.7,3.6-1.1,5.4-1.6 C406.4,483.9,406.4,484.1,406.5,484.3z"/> <path id="XMLID_203_" fill="none" stroke="#000000" stroke-width="4.252" stroke-linecap="round" stroke-linejoin="round" stroke-miterlimit="10" d=" M433.8,482.7c-4.7,0-9.2,0.1-13.6,0c-5.6-0.2-11.3-0.5-16.9-0.8c-6.2-0.4-12.1-6-12.2-12.2c0-1.8,1-4.4,2.4-5.5 c4.5-3.4,9.3-6.5,14.3-9c1.7-0.9,5.5-0.5,6.6,0.8c6.8,8,13,16.3,19.4,24.6C434,480.8,433.8,481.5,433.8,482.7z"/> <path id="XMLID_200_" fill="none" stroke="#000000" stroke-width="4.252" stroke-linecap="round" stroke-linejoin="round" stroke-miterlimit="10" d=" M387.6,464c-0.8-0.9-1.9-1.8-2.5-3c-2.5-4.9-4.8-9.8-7.2-14.8c-1.7-3.5-0.5-5.8,3-7c4.8-1.7,9.7-3.5,14.7-4.6 c1.8-0.4,4.7,0.1,5.8,1.4c2.9,3.5,5.3,7.6,7.5,11.6c0.4,0.8-0.4,3.1-1.3,3.8c-6,4.1-12.2,8-18.3,12 C388.8,463.6,388.5,463.6,387.6,464z"/> <path id="XMLID_202_" fill="none" stroke="#000000" stroke-width="4.252" stroke-linecap="round" stroke-linejoin="round" stroke-miterlimit="10" d=" M399.1,430.7c-7,2.2-13.6,4.2-20.2,6.4c-3.4,1.2-5.4,0-6.7-3.1c-0.6-1.5-1.3-3.1-1.9-4.6c-5-12.1-1.3-22.8,10.1-29.8 c3.3-2.1,5.3-1.9,6.8,2C391,411.3,395.1,420.9,399.1,430.7z"/> <path id="XMLID_201_" fill="none" stroke="#000000" stroke-width="4.252" stroke-linecap="round" stroke-linejoin="round" stroke-miterlimit="10" d=" M363,413c-2.7-10.4-5.5-20.7-8.1-31.1c-0.7-2.7,0.9-4.1,3.7-3.7c6.1,0.8,12.2,1.5,18.3,2.7c5.6,1.1,4.9,6.6,6,10.5 c0.3,1.2-2.1,3.3-3.4,4.8c-3.7,4.2-7.5,8.4-11.2,12.6c-1.2,1.3-2.2,2.8-3.3,4.2C364.3,413,363.7,413,363,413z"/> <path id="XMLID_196_" fill="none" stroke="#000000" stroke-width="4.252" stroke-linecap="round" stroke-linejoin="round" stroke-miterlimit="10" d=" M372.5,356.7c1.2,1.3,3.5,2.8,4.5,5c1.5,3.6,2.3,7.6,3.2,11.5c0.9,4-0.8,5.7-4.8,5.2c-4.8-0.6-9.5-1.3-14.3-2.1 c-5.1-0.9-7.5-4.6-7.4-11.3c0.1-4.7,3.2-6,7.3-6.5C364.3,358.2,367.8,357.5,372.5,356.7z"/> <path id="XMLID_193_" fill="none" stroke="#000000" stroke-width="4.252" stroke-linecap="round" stroke-linejoin="round" stroke-miterlimit="10" d=" M347.7,341.5c-0.4-4,1.6-5.9,5.4-6.2c1.3-0.1,2.7-0.2,4-0.2c12.1-0.6,14.5,1.5,14.9,13.7c0,1.3-1.7,3.6-2.9,3.9 c-5,1.2-10.1,2.1-15.2,2.5c-1.4,0.1-4-1.6-4.4-2.9C348.4,348.8,348.3,345.1,347.7,341.5z"/> <path id="XMLID_197_" fill="none" stroke="#000000" stroke-width="4.252" stroke-linecap="round" stroke-linejoin="round" stroke-miterlimit="10" d=" M345.8,323.4c-0.8-5.3,1-9.4,6.4-11.8c2.6-1.1,4.9-2.8,7.3-4.2c3.2-1.8,5.5-1.3,6.1,2.7c0.9,5.7,1.6,11.5,2.5,17.3 c0.5,3.2-0.8,4.6-4,4.6c-3.5,0-7,0.5-10.4,0.7c-6.2,0.5-7.2-0.4-7.7-6.6C345.9,325.3,345.9,324.5,345.8,323.4z"/> <path id="XMLID_192_" fill="none" stroke="#000000" stroke-width="4.252" stroke-linecap="round" stroke-linejoin="round" stroke-miterlimit="10" d=" M344.3,313c0-8.5,0-15.7,0-23c0-0.3,0.2-0.7,0.3-0.9c3.5-5,8.8-2.9,13.3-3c3.5,0,4.3,3,5,6.2c1.9,7.7-1.6,11.9-8.2,14.8 C351.7,308.6,348.8,310.5,344.3,313z"/> <path id="XMLID_191_" fill="none" stroke="#000000" stroke-width="4.252" stroke-linecap="round" stroke-linejoin="round" stroke-miterlimit="10" d=" M344.1,272.6c0-0.8-0.2-1.7,0-2.5c0.9-3.6-2.1-9.4,4.2-10.1c7.9-0.8,13.6,4.5,13.9,11.6c0.5,11.7,0.5,11.7-9.4,11.7 C343.7,283.4,343.7,283.4,344.1,272.6z"/> <path id="XMLID_185_" fill="none" stroke="#000000" stroke-width="4.252" stroke-linecap="round" stroke-linejoin="round" stroke-miterlimit="10" d=" M361.6,261.1c-4.4-1.5-8.2-2.5-11.8-4c-3.4-1.4-5-6.2-2.4-8.7c2.8-2.7,6.6-4.7,10.3-5.8c1.1-0.3,4.7,3.2,4.9,5.3 C363.1,251.9,362.1,256.2,361.6,261.1z"/> <path id="XMLID_190_" fill="none" stroke="#000000" stroke-width="4.252" stroke-linecap="round" stroke-linejoin="round" stroke-miterlimit="10" d=" M346.8,243.3c1.5-8.6,2.7-16,4.1-23.4c0.2-0.9,1.4-1.9,2.4-2.2c4.1-1.1,10.7,4.2,10.7,8.4c0,2.1-0.2,4.3-0.3,6.4 c-0.2,3.7-1.7,6-5.8,6.7C354.5,239.9,351.4,241.6,346.8,243.3z"/> <path id="XMLID_186_" fill="none" stroke="#000000" stroke-width="4.252" stroke-linecap="round" stroke-linejoin="round" stroke-miterlimit="10" d=" M368,208.1c-0.1,0.6-0.2,1.8-0.4,2.9c-1.8,9.5-3.7,10.4-11.7,4.9c-1.4-1-2.9-3.3-2.7-4.8c0.5-4.1,1.8-8.1,3.1-12 c0.3-0.9,2.1-1.8,3.1-1.7C363.4,197.6,368,203.3,368,208.1z"/> <path id="XMLID_184_" fill="none" stroke="#000000" stroke-width="4.252" stroke-linecap="round" stroke-linejoin="round" stroke-miterlimit="10" d=" M369.7,202.1c-5.3-3.9-10.9-5.7-9.9-12.9c0.9-6.3,8.1-11.3,14-8.9c1,0.4,2.2,2.5,1.9,3.4C374,189.6,372,195.4,369.7,202.1z"/> <path id="XMLID_182_" fill="none" stroke="#000000" stroke-width="4.252" stroke-linecap="round" stroke-linejoin="round" stroke-miterlimit="10" d=" M363.6,177.7c4.8-6.8,4.5-16.7,14.9-21.8c0.2,6.8,0.6,12.7,0.5,18.5c0,0.9-1.8,2.3-3,2.5c-3.7,0.8-7.5,1.2-11.2,1.7 C364.4,178.4,364,178,363.6,177.7z"/> <path id="XMLID_209_" fill="none" stroke="#000000" stroke-width="4.252" stroke-linecap="round" stroke-linejoin="round" stroke-miterlimit="10" d=" M374.4,146.6c-5.9,1.5-10.7,2.8-15.4,3.9c-14.7,3.3-25.9,11.9-34.9,23.5c-3.2,4.2-5.9,5-10.1,2.2c-1.4-0.9-3-1.3-5.2-2.1 c-0.6,5-1.2,9.7-1.8,14.8c-7.4-1.9-14.4-3.7-21.5-5.6c0.1,0.4,0,0.7,0.2,0.8c10,9.7,10.3,15.3,0.2,25c-8.6,8.3-17.7,16.2-26.7,24 c-2.2,1.9-5,3.2-8.8,5.5c-1.3-4.1-3.4-7.7-3.1-11.1c0.4-6.9,1.8-13.8,3.4-20.5c4.6-19.1,16.1-33.2,32-44.2 c13.2-9.1,26.9-17,41.9-22.9C342.1,133,357.7,138.6,374.4,146.6z"/> <path id="XMLID_215_" fill="none" stroke="#000000" stroke-width="4.252" stroke-linecap="round" stroke-linejoin="round" stroke-miterlimit="10" d=" M370.2,136c-12-6.3-23.9-7.2-35.9-7c-4.7,0.1-7.5-1.5-9.3-5.7c-1.1-2.7-2.9-5-4.4-7.5c-0.6-0.1-1.3-0.1-1.9-0.2 c-1.6,3.4-3.5,6.7-4.6,10.3c-0.9,3.2-2.4,4.5-5.6,4.1c-3.6-0.4-7.3-0.4-10.9-1.2c-1.5-0.3-3.1-1.7-3.9-3.1c-2.6-4.4-4.8-9-7.3-13.7 c-6.5,1.7-8.9,6.7-10.2,12.1c-1.1,4.3-3.2,5.4-7.1,4.5c-0.5-0.1-1-0.3-1.5-0.3c-9.5-0.7-17.4-3.1-17.3-15c0-1.7-1.1-3.4-1.9-5.6 c-7.1,3.4-6.1,9.8-6.4,14.2c-12.8-1.5-25.4-2.9-38.2-4.4c4.3-7.2,10.6-12.6,17.4-17.4c13.5-9.6,29.1-12.8,45.2-13.8 c41.5-2.4,75.5,12.4,101.3,45.3c0.5,0.7,1,1.4,1.4,2.1C369.3,134.1,369.5,134.5,370.2,136z"/> <path id="XMLID_217_" fill="none" stroke="#000000" stroke-width="4.252" stroke-linecap="round" stroke-linejoin="round" stroke-miterlimit="10" d=" M311,17c11.6,2.4,22.8,5.8,32.7,12.6c20.3,13.9,36.9,30.6,42.7,55.6c4.2,18,0.2,34.8-8.1,50.4c-5.7-13-11.8-25.8-16.9-39 c-1.6-4.1-0.1-9.3,0-13.2c-1.2,0-4.5,1-5.9-0.2c-2.9-2.4-6.1-5.7-6.6-9.1c-0.4-2.9,2.7-6.3,3.9-10.2c-7.3,10.9-15.7,6.7-23.9,2.5 c-4.9-2.5-9.6-5.5-14.5-8.4c3.5-4.7,6.3-8.3,9-11.9c-0.2-0.2-0.4-0.4-0.6-0.5c-3.8,2.6-7.5,5.2-11.3,7.7c-4,2.7-8.1,3.6-12.7,1.4 c-10.4-5.2-20.9-10.2-31.2-15.5c-1.9-1-3.6-2.5-5.1-4c-3.7-3.6-3.6-5.8,1.1-7.7c9.7-3.8,19.6-7,29.4-10.4C299,17,305,17,311,17z"/> <path id="XMLID_208_" fill="none" stroke="#000000" stroke-width="4.252" stroke-linecap="round" stroke-linejoin="round" stroke-miterlimit="10" d=" M446.3,63.8c-2.7-11.4,5.2-14.1,12.6-17.2c3.2-1.3,6.3-3,10.6-5c1.4,2.1,2.9,4.5,4.3,6.6c1.1-0.8,1.3-0.8,1.4-0.9 c4.4-14.4,5.8-11.1,17.1-11.5c7.5-0.3,14.9,0,22.3,0C507.9,45.5,501.7,55,495,64c-5.3,7.1-5.6,6.9-13.3,2.7 c-1.3-0.7-2.7-1.2-4.9-2.3c1.5,3.4,3.2,5.9,3.7,8.6c0.3,1.7-0.4,4.6-1.6,5.4c-6.3,4.4-12.9,8.3-19.4,12.2c-2.4,1.4-3.9,1.4-6.5-1.1 c-2.9-2.7-7.9-3.2-12.4-4.8c-0.1,1.6-0.3,2-0.1,2.2c6.7,10,6.5,11-4.7,15.4c-18.4,7.3-35.5,16.7-49.6,31.9c0-1.2-0.2-1.8,0-2.2 c6.1-12.4,12-24.9,18.4-37.1c5.3-10,5.6-9.8,16.8-6.3c-5.1-13.9,4.3-19.9,13.5-26.1c1.5-1,2.9-2.2,4.4-3.3c0.3-0.2,0.6-0.3,1.4-0.6 c1.3,1.4,2.7,3,4.1,4.5C445.3,63.5,445.8,63.6,446.3,63.8z"/> <path id="XMLID_216_" fill="none" stroke="#000000" stroke-width="4.252" stroke-linecap="round" stroke-linejoin="round" stroke-miterlimit="10" d=" M523.3,111.7c3.1-5.4,5.3-9.2,7.7-13.3c8.5,3.3,16.9,6.4,25.2,9.9c4,1.7,1.5,4.6,0,6.5c-9.2,11.8-20.6,19.7-36.2,20.3 c-1.3,0-2.7,0.1-4,0.2c-9.7,0.2-10.4-0.2-14-9.5c0.9,10.6-7.1,12.1-14.1,14.8c-0.3,0.1-0.6,0.3-0.9,0.4c-3.9,1-8.1,3.4-11.4,2.4 c-2.3-0.7-3.2-6-4.8-9.2c-0.6-1.1-1.3-2.2-2.9-3.3c-0.3,2.7,0,5.5-0.9,8c-0.7,2-2.6,4.9-4.2,5.1c-20.5,2.7-41,4.9-61.7,1.1 c-2.2-0.4-4.4-1.2-8.1-2.2c3-4.6,4.9-8.9,8-12c7.7-7.7,17.5-12,27.9-14.8c1.5-0.4,4,0.8,5.3,2.1c1.5,1.4,2.1,3.6,3.5,5.6 c-0.8-10,5.4-13.5,13.5-15.7c20.7-5.4,41.5-9.7,63-9.4c2.6,0,3.8,0.9,4.6,3.3C519.8,104.9,521.4,107.6,523.3,111.7z"/> <path id="XMLID_212_" fill="none" stroke="#000000" stroke-width="4.252" stroke-linecap="round" stroke-linejoin="round" stroke-miterlimit="10" d=" M396.4,292.6c5.1-12,9.7-24.2,15.3-35.8c1.8-3.7,6.1-6.3,9.1-9.2c-8.9-1.8-2.3-9.1-3.8-14.3c4.7-1.5,9-2.9,13.4-4.3 c-16.5-2.5-25-13.4-30.9-28.1c7.2-1,13.7-1.8,20.6-2.8c-0.6-0.7-0.7-1-0.8-1c-13.2,0-21.9-6.1-25.9-18.8c-2.4-7.6-5.3-15-7.9-22.6 c-0.5-1.5-0.6-3.3-0.3-4.9c0.5-3,2.1-4.7,5.2-2.8c16.9,10.1,33,21.4,46.5,35.9c7.5,8.1,7.9,18.9,8.9,29.1c1.7,17-0.3,33.6-8.6,48.9 c-4,7.4-9.1,13.8-16.3,18.5C413,285.4,405.4,290.7,396.4,292.6z"/> </g> </svg>