<?xml version="1.0" encoding="UTF-8"?>
<svg version="1.1" viewBox="0 0 163.96 221.92" xmlns="http://www.w3.org/2000/svg">
 <g transform="translate(-209.06 -260.41)">
  <path d="m291.89 260.41c-18.251 0-43.721 6.2351-60.096 26.606-15.73 19.569-22.728 52.669-22.728 82.251 0 26.435 15.291 50.249 28.681 69.957 17.194 25.307 35.171 43.108 55.288 43.108 19.778 0 39.687-22.334 55.431-46.8 12.74-19.798 24.558-42.715 24.558-69.721 0-27.784-1.6602-52.466-15.269-71.754-7.3979-10.485-16.079-18.942-27.179-24.502-12.854-6.4389-28.32-9.1454-38.686-9.1454zm-70.773 115.64c58.748 10.474 60.106 55.912 61.9 56.447-0.9362 0.0273-54.562 1.337-61.9-56.447zm140.86 0.28624c-16.131 57.275-61.269 54.374-62.229 56.075-7.9e-4 0.0113-0.0143 0.10019-0.0143 0.10019-0.0136-0.0356-4e-3 -0.0682 0.0143-0.10019 0.0762-1.0918 4.0924-54.433 62.229-56.075z"/>
 </g>
</svg>
